<svg width="160" height="31" viewBox="0 0 160 31" fill="none" xmlns="http://www.w3.org/2000/svg">
<path d="M0 29.18H1.02C2.9 29.18 3.63 28.56 3.63 26.7V4.81C3.63 2.95 2.9 2.33 1.02 2.33H0V1.63H21.13L21.46 12.12H20.81C19.95 5.88 18.61 2.33 12.85 2.33H10.81C8.93 2.33 8.24 3.03 8.24 4.81V15.09H9.99C14.11 15.09 14.89 12.57 15.01 9.06H15.62V22.28H15.01C14.85 18.85 14.15 15.84 9.99 15.84H8.24V26.7C8.24 28.56 8.93 29.18 10.81 29.18H12.52V29.88H0V29.18Z" fill="white"/>
<path d="M23.7 24.14V15.43C23.7 13.78 23.29 13.08 21.5 13.08H21.21V12.46L27.66 12.05V24.81C27.66 27.58 28.56 28.73 30.19 28.73C32.76 28.73 34.68 25.1 34.68 21.63V15.43C34.68 13.74 34.27 13.08 32.48 13.08H31.99V12.46L38.68 12.05V26.67C38.68 28.36 39.13 29.02 40.92 29.02H41.12V29.68L34.72 30.3L34.92 25.34H34.84C33.9 27.78 31.7 30.3 28.68 30.3C25.25 30.3 23.7 28.11 23.7 24.15V24.14Z" fill="white"/>
<path d="M44.43 25.05V13.15H41.66V12.65C44.68 12.11 47.09 10.25 47.74 5.22H48.43V12.41H53.65V13.15H48.43V25C48.43 27.4 49.16 28.76 50.92 28.76C52.51 28.76 53.73 27.31 53.86 23.47H54.47C54.47 28.1 52.68 30.41 49.45 30.41C46.22 30.41 44.43 28.72 44.43 25.04V25.05Z" fill="white"/>
<path d="M56.99 24.14V15.43C56.99 13.78 56.58 13.08 54.79 13.08H54.5V12.46L60.95 12.05V24.81C60.95 27.58 61.85 28.73 63.48 28.73C66.05 28.73 67.97 25.1 67.97 21.63V15.43C67.97 13.74 67.56 13.08 65.77 13.08H65.28V12.46L71.97 12.05V26.67C71.97 28.36 72.42 29.02 74.21 29.02H74.41V29.68L68 30.3L68.2 25.34H68.12C67.18 27.78 64.98 30.3 61.96 30.3C58.53 30.3 56.98 28.11 56.98 24.15L56.99 24.14Z" fill="white"/>
<path d="M75.59 29.22H75.79C77.59 29.22 77.99 28.56 77.99 26.91V15.39C77.99 13.74 77.58 13.08 75.79 13.08H75.59V12.46L82 12.09L81.63 18.57H81.71C82.93 14.77 85.01 11.88 87.75 11.88C89.67 11.88 91.05 12.99 91.05 14.9C91.05 16.47 90.11 17.58 88.72 17.58C87.46 17.58 86.64 16.8 86.64 15.6C86.64 14.69 87.13 14.11 87.58 13.78C87.87 13.61 88.03 13.49 88.03 13.28C88.03 13.07 87.74 12.95 87.34 12.95C84.73 12.95 82.04 17.49 82.04 21.79V26.91C82.04 28.64 82.45 29.22 84.24 29.22H85.18V29.88H75.59V29.22Z" fill="white"/>
<path d="M91.75 26.37C91.75 22.86 94.85 21 102.52 19.18V17.98C102.52 14.02 100.97 12.65 98.52 12.65C96.32 12.65 94.44 13.6 94.44 14.34C94.44 14.46 94.48 14.51 94.64 14.51C95.46 14.51 96.35 15.29 96.35 16.33C96.35 17.37 95.53 18.23 94.51 18.23C93.49 18.23 92.67 17.44 92.67 16.25C92.67 14.1 94.91 12.08 99.28 12.08C102.54 12.08 105.4 13.28 105.4 18.15V26.62C105.4 28.35 105.89 28.89 106.46 28.89C107.44 28.89 107.85 27.86 107.89 25.59H108.46C108.38 29.51 107.03 30.26 105.36 30.26C103.69 30.26 102.3 29.35 102.5 26.38H102.42C101.64 28.53 99.2 30.35 96.34 30.35C93.73 30.35 91.73 29.03 91.73 26.38L91.75 26.37ZM102.52 22.82V19.85C96.28 21.13 95.14 23.32 95.14 25.67C95.14 27.53 96.12 28.89 98 28.89C100 28.89 102.53 27.4 102.53 22.82H102.52Z" fill="white"/>
<path d="M110.84 22.86V4.52C110.84 2.62 110.43 2.17 108.64 2.17H107.95V1.59L113.7 0.970001V9.92999C113.7 13.11 113.58 16.41 113.58 16.41H113.66C115.21 13.68 116.8 12.16 119.45 12.16C123 12.16 126.47 16.04 126.47 21.16C126.47 26.86 122.72 30.29 119.33 30.29C116.56 30.29 115.09 28.72 113.7 26.2H113.62L110.85 30.62H110.32C110.73 28.27 110.85 25.37 110.85 22.86H110.84ZM123.04 21.25C123.04 16.71 121.98 12.82 118.96 12.82C116.19 12.82 113.66 16.25 113.66 21.2C113.66 25.83 115.94 29.63 118.88 29.63C121.29 29.63 123.04 27.32 123.04 21.25Z" fill="white"/>
<path d="M127.98 29.31H128.14C129.98 29.31 130.38 28.81 130.38 26.83V4.64999C130.38 2.66999 129.97 2.17 128.14 2.17H127.81V1.59L133.28 0.970001V26.83C133.28 28.81 133.69 29.31 135.48 29.31H135.81V29.89H127.98V29.31Z" fill="white"/>
<path d="M137.23 21.34C137.23 15.76 141.07 12.01 145.14 12.01C148.4 12.01 152.16 14.57 152.16 19.9C152.16 20.02 152.12 20.93 152.08 21.14H140.58C140.58 25.68 142.38 29.19 145.88 29.19C149.02 29.19 150.61 27.58 151.96 25.6L152.41 25.93C150.9 28.49 148.53 30.51 144.98 30.51C140.29 30.51 137.23 27 137.23 21.34ZM148.78 18.61C148.78 15.31 147.64 12.62 145.03 12.62C142.17 12.62 140.71 15.72 140.58 20.47H146.7C148.33 20.47 148.78 19.93 148.78 18.61Z" fill="white"/>
<path d="M160 25.11H155.17V29.94H160V25.11Z" fill="white"/>
</svg>
