<svg width="200" height="200" viewBox="0 0 200 200" fill="none" xmlns="http://www.w3.org/2000/svg">
<g clip-path="url(#clip0_4_2)">
<path d="M200 0H0V200H200V0Z" fill="black"/>
<mask id="mask0_4_2" style="mask-type:luminance" maskUnits="userSpaceOnUse" x="65" y="39" width="69" height="69">
<path d="M133.53 39.37H65.25V107.65H133.53V39.37Z" fill="white"/>
</mask>
<g mask="url(#mask0_4_2)">
<path d="M133.28 39H65V107.28H133.28V39Z" fill="white"/>
</g>
<path d="M85.2212 95.4824C85.2212 95.4824 94.2649 80.0545 98.0122 72.7631C101.761 65.4815 107.577 52.0501 107.577 52.0501L112.87 52.6204C112.87 52.6204 104.645 66.4361 100.953 73.576C97.2687 80.7043 90.4539 96.053 90.4539 96.053L85.2229 95.4923L85.2212 95.4824Z" fill="black"/>
<path d="M107.068 53.8119C107.147 53.2098 106.868 52.3548 106.465 51.8966L103.885 49.053C103.473 48.6064 103.633 48.2949 104.245 48.3721L108.058 48.8319C108.66 48.9109 109.515 48.6318 109.973 48.2282L112.817 45.6484C113.263 45.2366 113.575 45.3961 113.498 46.0081L113.038 49.8213C112.959 50.4235 113.238 51.2785 113.642 51.7367L116.221 54.5802C116.633 55.0269 116.474 55.3384 115.862 55.2611L112.048 54.8014C111.446 54.7224 110.591 55.0015 110.133 55.4051L107.29 57.9849C106.843 58.3967 106.531 58.2372 106.609 57.6252L107.068 53.8119Z" fill="black"/>
<path d="M85.1941 96.5627C85.2731 95.9606 84.994 95.1055 84.5904 94.6473L82.0106 91.8038C81.5988 91.3572 81.7583 91.0456 82.3703 91.1229L86.1836 91.5826C86.7857 91.6616 87.6407 91.3825 88.0989 90.9789L90.9425 88.3991C91.3891 87.9874 91.7006 88.1468 91.6233 88.7588L91.1636 92.5721C91.0846 93.1742 91.3637 94.0293 91.7673 94.4874L94.3471 97.331C94.7589 97.7776 94.5994 98.0892 93.9874 98.0119L90.1741 97.5521C89.572 97.4732 88.717 97.7523 88.2588 98.1558L85.4153 100.736C84.9686 101.147 84.6571 100.988 84.7344 100.376L85.1941 96.5627Z" fill="black"/>
<path d="M20 159.18H21.02C22.9 159.18 23.63 158.56 23.63 156.7V134.81C23.63 132.95 22.9 132.33 21.02 132.33H20V131.63H41.13L41.46 142.12H40.81C39.95 135.88 38.61 132.33 32.85 132.33H30.81C28.93 132.33 28.24 133.03 28.24 134.81V145.09H29.99C34.11 145.09 34.89 142.57 35.01 139.06H35.62V152.28H35.01C34.85 148.85 34.15 145.84 29.99 145.84H28.24V156.7C28.24 158.56 28.93 159.18 30.81 159.18H32.52V159.88H20V159.18Z" fill="white"/>
<path d="M43.7 154.14V145.43C43.7 143.78 43.29 143.08 41.5 143.08H41.21V142.46L47.66 142.05V154.81C47.66 157.58 48.56 158.73 50.19 158.73C52.76 158.73 54.68 155.1 54.68 151.63V145.43C54.68 143.74 54.27 143.08 52.48 143.08H51.99V142.46L58.68 142.05V156.67C58.68 158.36 59.13 159.02 60.92 159.02H61.12V159.68L54.72 160.3L54.92 155.34H54.84C53.9 157.78 51.7 160.3 48.68 160.3C45.25 160.3 43.7 158.11 43.7 154.15V154.14Z" fill="white"/>
<path d="M64.43 155.05V143.15H61.66V142.65C64.68 142.11 67.09 140.25 67.74 135.22H68.43V142.41H73.65V143.15H68.43V155C68.43 157.4 69.16 158.76 70.92 158.76C72.51 158.76 73.73 157.31 73.86 153.47H74.47C74.47 158.1 72.68 160.41 69.45 160.41C66.22 160.41 64.43 158.72 64.43 155.04V155.05Z" fill="white"/>
<path d="M76.99 154.14V145.43C76.99 143.78 76.58 143.08 74.79 143.08H74.5V142.46L80.95 142.05V154.81C80.95 157.58 81.85 158.73 83.48 158.73C86.05 158.73 87.97 155.1 87.97 151.63V145.43C87.97 143.74 87.56 143.08 85.77 143.08H85.28V142.46L91.97 142.05V156.67C91.97 158.36 92.42 159.02 94.21 159.02H94.41V159.68L88 160.3L88.2 155.34H88.12C87.18 157.78 84.98 160.3 81.96 160.3C78.53 160.3 76.98 158.11 76.98 154.15L76.99 154.14Z" fill="white"/>
<path d="M95.59 159.22H95.79C97.59 159.22 97.99 158.56 97.99 156.91V145.39C97.99 143.74 97.58 143.08 95.79 143.08H95.59V142.46L102 142.09L101.63 148.57H101.71C102.93 144.77 105.01 141.88 107.75 141.88C109.67 141.88 111.05 142.99 111.05 144.9C111.05 146.47 110.11 147.58 108.72 147.58C107.46 147.58 106.64 146.8 106.64 145.6C106.64 144.69 107.13 144.11 107.58 143.78C107.87 143.61 108.03 143.49 108.03 143.28C108.03 143.07 107.74 142.95 107.34 142.95C104.73 142.95 102.04 147.49 102.04 151.79V156.91C102.04 158.64 102.45 159.22 104.24 159.22H105.18V159.88H95.59V159.22Z" fill="white"/>
<path d="M111.75 156.37C111.75 152.86 114.85 151 122.52 149.18V147.98C122.52 144.02 120.97 142.65 118.52 142.65C116.32 142.65 114.44 143.6 114.44 144.34C114.44 144.46 114.48 144.51 114.64 144.51C115.46 144.51 116.35 145.29 116.35 146.33C116.35 147.37 115.53 148.23 114.51 148.23C113.49 148.23 112.67 147.44 112.67 146.25C112.67 144.1 114.91 142.08 119.28 142.08C122.54 142.08 125.4 143.28 125.4 148.15V156.62C125.4 158.35 125.89 158.89 126.46 158.89C127.44 158.89 127.85 157.86 127.89 155.59H128.46C128.38 159.51 127.03 160.26 125.36 160.26C123.69 160.26 122.3 159.35 122.5 156.38H122.42C121.64 158.53 119.2 160.35 116.34 160.35C113.73 160.35 111.73 159.03 111.73 156.38L111.75 156.37ZM122.52 152.82V149.85C116.28 151.13 115.14 153.32 115.14 155.67C115.14 157.53 116.12 158.89 118 158.89C120 158.89 122.53 157.4 122.53 152.82H122.52Z" fill="white"/>
<path d="M130.84 152.86V134.52C130.84 132.62 130.43 132.17 128.64 132.17H127.95V131.59L133.7 130.97V139.93C133.7 143.11 133.58 146.41 133.58 146.41H133.66C135.21 143.68 136.8 142.16 139.45 142.16C143 142.16 146.47 146.04 146.47 151.16C146.47 156.86 142.72 160.29 139.33 160.29C136.56 160.29 135.09 158.72 133.7 156.2H133.62L130.85 160.62H130.32C130.73 158.27 130.85 155.37 130.85 152.86H130.84ZM143.04 151.25C143.04 146.71 141.98 142.82 138.96 142.82C136.19 142.82 133.66 146.25 133.66 151.2C133.66 155.83 135.94 159.63 138.88 159.63C141.29 159.63 143.04 157.32 143.04 151.25Z" fill="white"/>
<path d="M147.98 159.31H148.14C149.98 159.31 150.38 158.81 150.38 156.83V134.65C150.38 132.67 149.97 132.17 148.14 132.17H147.81V131.59L153.28 130.97V156.83C153.28 158.81 153.69 159.31 155.48 159.31H155.81V159.89H147.98V159.31Z" fill="white"/>
<path d="M157.23 151.34C157.23 145.76 161.07 142.01 165.14 142.01C168.4 142.01 172.16 144.57 172.16 149.9C172.16 150.02 172.12 150.93 172.08 151.14H160.58C160.58 155.68 162.38 159.19 165.88 159.19C169.02 159.19 170.61 157.58 171.96 155.6L172.41 155.93C170.9 158.49 168.53 160.51 164.98 160.51C160.29 160.51 157.23 157 157.23 151.34ZM168.78 148.61C168.78 145.31 167.64 142.62 165.03 142.62C162.17 142.62 160.71 145.72 160.58 150.47H166.7C168.33 150.47 168.78 149.93 168.78 148.61Z" fill="white"/>
<path d="M180 155.11H175.17V159.94H180V155.11Z" fill="white"/>
</g>
<defs>
<clipPath id="clip0_4_2">
<rect width="200" height="200" fill="white"/>
</clipPath>
</defs>
</svg>
