<svg width="555" height="122" viewBox="0 0 555 122" fill="none" xmlns="http://www.w3.org/2000/svg">
<rect width="555" height="122" fill="white"/>
<path d="M162 95.7946H164.27C168.455 95.7946 170.08 94.4145 170.08 90.2742V41.5477C170.08 37.4074 168.455 36.0273 164.27 36.0273H162V34.4691H209.035L209.769 57.8196H208.322C206.408 43.9295 203.425 36.0273 190.604 36.0273H186.063C181.878 36.0273 180.342 37.5855 180.342 41.5477V64.4307H184.237C193.408 64.4307 195.145 58.8212 195.412 51.0081H196.77V80.4354H195.412C195.056 72.8003 193.497 66.1002 184.237 66.1002H180.342V90.2742C180.342 94.4145 181.878 95.7946 186.063 95.7946H189.869V97.3528H162V95.7946Z" fill="black"/>
<path d="M214.756 84.5757V65.1875C214.756 61.5147 213.843 59.9565 209.858 59.9565H209.213V58.5764L223.57 57.6638V86.0671C223.57 92.2331 225.574 94.7929 229.202 94.7929C234.923 94.7929 239.197 86.7127 239.197 78.9886V65.1875C239.197 61.4256 238.284 59.9565 234.3 59.9565H233.209V58.5764L248.101 57.6638V90.2074C248.101 93.9693 249.102 95.4385 253.087 95.4385H253.532V96.9076L239.286 98.2877L239.731 87.2469H239.553C237.46 92.6783 232.563 98.2877 225.841 98.2877C218.206 98.2877 214.756 93.4128 214.756 84.598V84.5757Z" fill="black"/>
<path d="M260.9 86.6014V60.1123H254.734V58.9993C261.456 57.7973 266.821 53.657 268.268 42.4604H269.804V58.4651H281.423V60.1123H269.804V86.4901C269.804 91.8324 271.429 94.8597 275.346 94.8597C278.886 94.8597 281.601 91.6321 281.891 83.0843H283.248C283.248 93.3906 279.264 98.5326 272.074 98.5326C264.884 98.5326 260.9 94.7707 260.9 86.5791V86.6014Z" fill="black"/>
<path d="M288.858 84.5757V65.1875C288.858 61.5147 287.945 59.9565 283.961 59.9565H283.315V58.5764L297.673 57.6638V86.0671C297.673 92.2331 299.676 94.7929 303.305 94.7929C309.025 94.7929 313.299 86.7127 313.299 78.9886V65.1875C313.299 61.4256 312.386 59.9565 308.402 59.9565H307.311V58.5764L322.203 57.6638V90.2074C322.203 93.9693 323.205 95.4385 327.189 95.4385H327.634V96.9076L313.366 98.2877L313.811 87.2469H313.633C311.541 92.6783 306.643 98.2877 299.921 98.2877C292.286 98.2877 288.836 93.4128 288.836 84.598L288.858 84.5757Z" fill="black"/>
<path d="M330.261 95.8837H330.706C334.713 95.8837 335.603 94.4145 335.603 90.7417V65.0985C335.603 61.4256 334.691 59.9565 330.706 59.9565H330.261V58.5764L344.529 57.7528L343.706 72.1771H343.884C346.6 63.7184 351.23 57.2853 357.329 57.2853C361.603 57.2853 364.674 59.7561 364.674 64.0077C364.674 67.5025 362.582 69.9734 359.488 69.9734C356.683 69.9734 354.858 68.2371 354.858 65.566C354.858 63.5403 355.949 62.2492 356.95 61.5147C357.596 61.1363 357.952 60.8691 357.952 60.4017C357.952 59.9342 357.307 59.6671 356.416 59.6671C350.606 59.6671 344.619 69.773 344.619 79.3447V90.7417C344.619 94.5926 345.531 95.8837 349.516 95.8837H351.608V97.3528H330.261V95.8837Z" fill="black"/>
<path d="M366.233 89.5396C366.233 81.7265 373.133 77.5862 390.206 73.5349V70.8637C390.206 62.0489 386.756 58.9993 381.303 58.9993C376.405 58.9993 372.221 61.114 372.221 62.7612C372.221 63.0283 372.31 63.1396 372.666 63.1396C374.491 63.1396 376.472 64.8759 376.472 67.1909C376.472 69.5059 374.647 71.4202 372.376 71.4202C370.106 71.4202 368.281 69.6617 368.281 67.0128C368.281 62.227 373.267 57.7305 382.994 57.7305C390.251 57.7305 396.617 60.4017 396.617 71.2422V90.0961C396.617 93.947 397.708 95.1491 398.977 95.1491C401.158 95.1491 402.071 92.8563 402.16 87.8034H403.429C403.251 96.5292 400.246 98.1986 396.528 98.1986C392.811 98.1986 389.717 96.173 390.162 89.5619H389.984C388.248 94.3477 382.816 98.399 376.45 98.399C370.64 98.399 366.188 95.4607 366.188 89.5619L366.233 89.5396ZM390.206 81.6375V75.0263C376.316 77.8756 373.779 82.7504 373.779 87.9815C373.779 92.1218 375.96 95.1491 380.145 95.1491C384.597 95.1491 390.229 91.8324 390.229 81.6375H390.206Z" fill="black"/>
<path d="M408.727 81.7265V40.9022C408.727 36.6729 407.814 35.6712 403.829 35.6712H402.293V34.3801L415.093 33V52.9447C415.093 60.0233 414.826 67.369 414.826 67.369H415.004C418.454 61.2921 421.993 57.9086 427.892 57.9086C435.794 57.9086 443.518 66.5454 443.518 77.9423C443.518 90.6304 435.171 98.2654 427.625 98.2654C421.459 98.2654 418.187 94.7707 415.093 89.1612H414.915L408.749 99H407.569C408.482 93.769 408.749 87.3137 408.749 81.7265H408.727ZM435.883 78.1427C435.883 68.0368 433.524 59.3778 426.801 59.3778C420.635 59.3778 415.004 67.0128 415.004 78.0314C415.004 88.3376 420.079 96.7963 426.623 96.7963C431.988 96.7963 435.883 91.6543 435.883 78.1427Z" fill="black"/>
<path d="M446.88 96.084H447.236C451.332 96.084 452.222 94.971 452.222 90.5636V41.1916C452.222 36.7841 451.309 35.6712 447.236 35.6712H446.501V34.3801L458.677 33V90.5636C458.677 94.971 459.59 96.084 463.574 96.084H464.309V97.3751H446.88V96.084Z" fill="black"/>
<path d="M467.47 78.343C467.47 65.9221 476.017 57.5747 485.077 57.5747C492.334 57.5747 500.703 63.2732 500.703 75.1376C500.703 75.4047 500.614 77.4304 500.525 77.8978H474.927C474.927 88.0037 478.933 95.8169 486.724 95.8169C493.714 95.8169 497.253 92.2331 500.258 87.8257L501.26 88.5602C497.899 94.2587 492.623 98.7552 484.721 98.7552C474.281 98.7552 467.47 90.942 467.47 78.343ZM493.18 72.2661C493.18 64.9204 490.642 58.9326 484.832 58.9326C478.466 58.9326 475.216 65.8331 474.927 76.4064H488.55C492.178 76.4064 493.18 75.2044 493.18 72.2661Z" fill="black"/>
<path d="M518.155 86.7349H507.404V97.4864H518.155V86.7349Z" fill="black"/>
<path d="M54.1621 96.5782C54.1621 96.5782 68.4623 72.183 74.3877 60.6535C80.3158 49.1396 89.5117 27.9015 89.5117 27.9015L97.8819 28.8032C97.8819 28.8032 84.8757 50.6491 79.0374 61.9389C73.212 73.2105 62.4361 97.4803 62.4361 97.4803L54.1648 96.5937L54.1621 96.5782Z" fill="black"/>
<path d="M88.7077 30.6873C88.8326 29.7352 88.3913 28.3832 87.7531 27.6587L83.6738 23.1624C83.0228 22.4562 83.2749 21.9635 84.2426 22.0857L90.2723 22.8127C91.2244 22.9376 92.5764 22.4963 93.3009 21.8581L97.7972 17.7788C98.5034 17.1278 98.9961 17.3799 98.8739 18.3476L98.1469 24.3773C98.022 25.3294 98.4634 26.6814 99.1015 27.4059L103.181 31.9022C103.832 32.6084 103.58 33.1011 102.612 32.9789L96.5824 32.2519C95.6302 32.127 94.2782 32.5683 93.5537 33.2065L89.0574 37.2858C88.3512 37.9368 87.8585 37.6847 87.9808 36.717L88.7077 30.6873Z" fill="black"/>
<path d="M54.1192 98.2863C54.2441 97.3342 53.8028 95.9822 53.1646 95.2577L49.0853 90.7614C48.4343 90.0552 48.6864 89.5625 49.6541 89.6847L55.6838 90.4117C56.6359 90.5366 57.9879 90.0952 58.7124 89.4571L63.2087 85.3778C63.9149 84.7267 64.4076 84.9789 64.2854 85.9466L63.5584 91.9762C63.4335 92.9284 63.8749 94.2804 64.513 95.0049L68.5923 99.5012C69.2434 100.207 68.9912 100.7 68.0235 100.578L61.9939 99.8509C61.0417 99.726 59.6897 100.167 58.9652 100.805L54.4689 104.885C53.7627 105.536 53.2701 105.284 53.3923 104.316L54.1192 98.2863Z" fill="black"/>
</svg>
